<svg width="1271" height="196" viewBox="0 0 1271 196" fill="none" xmlns="http://www.w3.org/2000/svg">
<g clip-path="url(#clip0_22_360)">
<path d="M49.5601 191.495H9.88006C6.63736 191.495 4.24806 190.812 2.71206 189.447C1.34676 187.911 0.664062 185.522 0.664062 182.279V16.391C0.664062 13.1483 1.34676 10.8443 2.71206 9.47896C4.24806 7.94296 6.63736 7.17496 9.88006 7.17496H49.5601C52.8028 7.17496 55.1068 7.94296 56.4721 9.47896C58.0081 10.8443 58.7761 13.1483 58.7761 16.391V71.9431H101.528V16.391C101.528 13.1483 102.211 10.8443 103.576 9.47896C105.112 7.94296 107.501 7.17496 110.744 7.17496H150.424C153.667 7.17496 155.971 7.94296 157.336 9.47896C158.872 10.8443 159.64 13.1483 159.64 16.391V182.279C159.64 185.522 158.872 187.911 157.336 189.447C155.971 190.812 153.667 191.495 150.424 191.495H110.744C107.501 191.495 105.112 190.812 103.576 189.447C102.211 187.911 101.528 185.522 101.528 182.279V125.447H58.7761V182.279C58.7761 185.522 58.0081 187.911 56.4721 189.447C55.1068 190.812 52.8028 191.495 49.5601 191.495ZM261.73 60.9351L249.698 99.8471H289.89L277.858 60.9351C277.175 59.3991 276.407 58.2901 275.554 57.6071C274.871 56.9241 274.018 56.5831 272.994 56.5831H266.594C265.57 56.5831 264.631 56.9241 263.778 57.6071C263.095 58.2901 262.413 59.3991 261.73 60.9351ZM247.138 182.279C247.138 185.522 246.37 187.911 244.834 189.447C243.469 190.812 241.165 191.495 237.922 191.495H200.29C197.047 191.495 194.658 190.812 193.122 189.447C191.757 187.911 191.074 185.522 191.074 182.279V114.695C191.074 109.575 191.842 103.687 193.378 97.0311C195.085 90.3751 197.645 82.6101 201.058 73.7351L223.33 15.623C224.354 12.7216 225.89 10.5883 227.938 9.22296C230.157 7.85756 232.973 7.17496 236.386 7.17496H305.25C308.493 7.17496 311.138 7.85756 313.186 9.22296C315.405 10.5883 317.026 12.7216 318.05 15.623L340.322 73.7351C343.735 82.6101 346.21 90.3751 347.746 97.0311C349.453 103.687 350.306 109.575 350.306 114.695V182.279C350.306 185.522 349.538 187.911 348.002 189.447C346.637 190.812 344.333 191.495 341.09 191.495H302.434C299.021 191.495 296.461 190.812 294.754 189.447C293.218 187.911 292.45 185.522 292.45 182.279V146.439H247.138V182.279ZM439.77 53.2551V86.0231H458.97C463.407 86.0231 466.394 84.9141 467.93 82.6951C469.466 80.3061 470.234 77.4041 470.234 73.9911V65.2871C470.234 61.8741 469.466 59.0581 467.93 56.8391C466.394 54.4501 463.407 53.2551 458.97 53.2551H439.77ZM430.554 191.495H391.13C387.887 191.495 385.498 190.812 383.962 189.447C382.597 187.911 381.914 185.522 381.914 182.279V16.391C381.914 13.1483 382.597 10.8443 383.962 9.47896C385.498 7.94296 387.887 7.17496 391.13 7.17496H476.378C495.493 7.17496 508.634 11.1856 515.802 19.207C523.141 27.0576 526.81 37.2976 526.81 49.9271V61.7031C526.81 68.8711 525.701 75.0151 523.482 80.1351C521.434 85.0841 517.765 88.6681 512.474 90.8871C521.69 91.9111 529.114 95.6661 534.746 102.151C540.549 108.636 543.45 117.255 543.45 128.007V182.279C543.45 185.522 542.682 187.911 541.146 189.447C539.781 190.812 537.477 191.495 534.234 191.495H494.554C491.311 191.495 488.922 190.812 487.386 189.447C486.021 187.911 485.338 185.522 485.338 182.279V143.111C485.338 139.356 484.57 136.626 483.034 134.919C481.669 133.042 479.194 132.103 475.61 132.103H439.77V182.279C439.77 185.522 439.002 187.911 437.466 189.447C436.101 190.812 433.797 191.495 430.554 191.495ZM619.524 191.495H581.38C578.137 191.495 575.748 190.812 574.212 189.447C572.847 187.911 572.164 185.522 572.164 182.279V16.391C572.164 13.1483 572.847 10.8443 574.212 9.47896C575.748 7.94296 578.137 7.17496 581.38 7.17496H622.596C625.327 7.17496 627.545 7.77226 629.252 8.96696C631.129 10.1616 632.836 12.1243 634.372 14.855L657.412 56.5831C658.265 58.1191 658.948 59.2281 659.46 59.9111C660.143 60.5941 660.996 60.9351 662.02 60.9351H664.324C665.348 60.9351 666.116 60.5941 666.628 59.9111C667.311 59.2281 668.079 58.1191 668.932 56.5831L691.716 14.855C693.252 12.1243 694.873 10.1616 696.58 8.96696C698.457 7.77226 700.761 7.17496 703.492 7.17496H744.964C748.207 7.17496 750.511 7.94296 751.876 9.47896C753.412 10.8443 754.18 13.1483 754.18 16.391V182.279C754.18 185.522 753.412 187.911 751.876 189.447C750.511 190.812 748.207 191.495 744.964 191.495H705.54C702.297 191.495 699.908 190.812 698.372 189.447C697.007 187.911 696.324 185.522 696.324 182.279V92.1671L681.22 120.071C679.684 122.972 677.807 125.106 675.588 126.471C673.54 127.666 670.895 128.263 667.652 128.263H657.412C654.169 128.263 651.439 127.666 649.22 126.471C647.172 125.106 645.38 122.972 643.844 120.071L628.74 92.1671V182.279C628.74 185.522 627.972 187.911 626.436 189.447C625.071 190.812 622.767 191.495 619.524 191.495ZM945.574 143.111C945.574 150.962 944.379 158.13 941.99 164.615C939.771 170.93 935.675 176.391 929.702 180.999C923.899 185.436 915.793 188.935 905.382 191.495C895.142 194.055 882.086 195.335 866.214 195.335C850.342 195.335 837.201 194.055 826.79 191.495C816.379 188.935 808.187 185.436 802.214 180.999C796.411 176.391 792.315 170.93 789.926 164.615C787.707 158.13 786.598 150.962 786.598 143.111V55.8151C786.598 47.9641 787.707 40.8816 789.926 34.567C792.315 28.0816 796.411 22.535 802.214 17.927C808.187 13.319 816.379 9.73496 826.79 7.17496C837.201 4.61496 850.342 3.33496 866.214 3.33496C882.086 3.33496 895.142 4.61496 905.382 7.17496C915.793 9.73496 923.899 13.319 929.702 17.927C935.675 22.535 939.771 28.0816 941.99 34.567C944.379 40.8816 945.574 47.9641 945.574 55.8151V143.111ZM844.71 133.895C844.71 137.308 845.99 140.21 848.55 142.599C851.11 144.818 856.998 145.927 866.214 145.927C875.43 145.927 881.318 144.818 883.878 142.599C886.438 140.21 887.718 137.308 887.718 133.895V65.0311C887.718 61.7881 886.438 59.0581 883.878 56.8391C881.318 54.4501 875.43 53.2551 866.214 53.2551C856.998 53.2551 851.11 54.4501 848.55 56.8391C845.99 59.0581 844.71 61.7881 844.71 65.0311V133.895ZM1025.78 191.495H987.38C984.14 191.495 981.748 190.812 980.212 189.447C978.847 187.911 978.164 185.522 978.164 182.279V16.391C978.164 13.1483 978.847 10.8443 980.212 9.47896C981.748 7.94296 984.14 7.17496 987.38 7.17496H1014C1017.25 7.17496 1019.98 7.68696 1022.2 8.71096C1024.59 9.73496 1026.89 11.527 1029.11 14.087L1078.77 70.9191V16.391C1078.77 13.1483 1079.45 10.8443 1080.82 9.47896C1082.36 7.94296 1084.75 7.17496 1087.99 7.17496H1126.39C1129.63 7.17496 1131.93 7.94296 1133.3 9.47896C1134.84 10.8443 1135.6 13.1483 1135.6 16.391V182.279C1135.6 185.522 1134.84 187.911 1133.3 189.447C1131.93 190.812 1129.63 191.495 1126.39 191.495H1087.99C1084.75 191.495 1082.36 190.812 1080.82 189.447C1079.45 187.911 1078.77 185.522 1078.77 182.279V150.791L1035 97.7991V182.279C1035 185.522 1034.23 187.911 1032.69 189.447C1031.33 190.812 1029.02 191.495 1025.78 191.495Z" fill="#363062"/>
<path d="M1168.35 59.52C1167.92 59.52 1167.49 59.615 1167.09 59.798C1166.7 59.982 1166.35 60.25 1166.07 60.583C1165.79 60.916 1165.59 61.307 1165.48 61.727C1165.37 62.148 1165.35 62.588 1165.43 63.017C1167.34 73.8 1172.53 83.7421 1180.28 91.4881C1181.95 93.1451 1183.72 94.693 1185.58 96.122L1199.01 182.63C1199.44 185.448 1200.87 188.021 1203.03 189.879C1205.2 191.737 1207.95 192.755 1210.8 192.748L1225.85 192.769C1228.7 192.784 1231.45 191.774 1233.61 189.922C1235.77 188.07 1237.19 185.501 1237.61 182.684L1250.79 96.198C1252.65 94.779 1254.42 93.241 1256.08 91.595C1263.82 83.875 1268.98 73.954 1270.87 63.181C1270.94 62.752 1270.92 62.312 1270.81 61.891C1270.7 61.47 1270.49 61.0791 1270.21 60.7451C1269.93 60.4111 1269.58 60.1421 1269.19 59.9571C1268.79 59.7731 1268.36 59.6771 1267.93 59.6761L1168.35 59.52ZM1224.17 112.589L1224.19 129.433C1224.21 130.228 1224.07 131.018 1223.78 131.758C1223.5 132.498 1223.06 133.171 1222.51 133.74C1221.95 134.308 1221.29 134.76 1220.56 135.068C1219.83 135.376 1219.04 135.534 1218.25 135.532C1217.45 135.531 1216.66 135.371 1215.93 135.061C1215.2 134.751 1214.53 134.298 1213.98 133.728C1213.42 133.158 1212.99 132.483 1212.7 131.742C1212.4 131.002 1212.26 130.211 1212.28 129.416L1212.26 112.572C1212.3 111.02 1212.94 109.545 1214.05 108.463C1215.16 107.38 1216.65 106.776 1218.2 106.778C1219.76 106.78 1221.25 107.389 1222.36 108.474C1223.48 109.56 1224.12 111.036 1224.17 112.589ZM1270.83 44.2469C1270.91 44.6764 1270.89 45.1171 1270.78 45.5391C1270.67 45.9611 1270.47 46.352 1270.19 46.686C1269.91 47.02 1269.56 47.289 1269.16 47.472C1268.77 47.656 1268.34 47.7501 1267.9 47.7481L1168.34 47.6091C1167.91 47.6091 1167.47 47.5131 1167.08 47.3291C1166.68 47.1441 1166.33 46.8751 1166.05 46.5401C1165.77 46.2051 1165.57 45.813 1165.45 45.391C1165.34 44.9692 1165.32 44.5281 1165.4 44.0989C1167.59 31.7228 1174.06 20.5233 1183.69 12.4625C1193.31 4.40175 1205.48 -0.00605024 1218.05 0.0116498C1230.63 0.0292498 1242.81 4.47125 1252.46 12.559C1262.11 20.6469 1268.61 31.8648 1270.83 44.2469Z" fill="#363062"/>
<path d="M895 47H835V151H895V47Z" fill="#363062"/>
<path fill-rule="evenodd" clip-rule="evenodd" d="M867 57C861.961 57 857.128 58.896 853.565 62.272C850.002 65.648 848 70.226 848 75V97.5C848 102.274 850.002 106.852 853.565 110.228C857.128 113.604 861.961 115.5 867 115.5C872.039 115.5 876.872 113.604 880.435 110.228C883.998 106.852 886 102.274 886 97.5V75C886 70.226 883.998 65.648 880.435 62.272C876.872 58.896 872.039 57 867 57ZM833.75 93C835.01 93 836.218 93.474 837.109 94.318C838 95.162 838.5 96.307 838.5 97.5C838.5 104.661 841.503 111.528 846.847 116.592C852.192 121.655 859.441 124.5 867 124.5C874.559 124.5 881.808 121.655 887.153 116.592C892.497 111.528 895.5 104.661 895.5 97.5C895.5 96.307 896 95.162 896.891 94.318C897.782 93.474 898.99 93 900.25 93C901.51 93 902.718 93.474 903.609 94.318C904.5 95.162 905 96.307 905 97.5C905 106.269 901.622 114.736 895.5 121.313C889.378 127.89 880.933 132.124 871.75 133.221V142.5C871.75 143.693 871.25 144.838 870.359 145.682C869.468 146.526 868.26 147 867 147C865.74 147 864.532 146.526 863.641 145.682C862.75 144.838 862.25 143.693 862.25 142.5V133.221C853.067 132.124 844.622 127.89 838.5 121.313C832.378 114.736 829 106.269 829 97.5C829 96.307 829.5 95.162 830.391 94.318C831.282 93.474 832.49 93 833.75 93Z" fill="#F5F5F5"/>
</g>
<defs>
<clipPath id="clip0_22_360">
<rect width="1271" height="196" fill="white"/>
</clipPath>
</defs>
</svg>
