<svg width="16" height="16" viewBox="0 0 16 16" fill="none" xmlns="http://www.w3.org/2000/svg">
<path d="M5.16668 1.66669C5.16668 1.53408 5.11401 1.4069 5.02024 1.31313C4.92647 1.21937 4.79929 1.16669 4.66668 1.16669C4.53408 1.16669 4.4069 1.21937 4.31313 1.31313C4.21936 1.4069 4.16668 1.53408 4.16668 1.66669V2.72002C3.20668 2.79669 2.57735 2.98469 2.11468 3.44802C1.65135 3.91069 1.46335 4.54069 1.38602 5.50002H14.614C14.5367 4.54002 14.3487 3.91069 13.8853 3.44802C13.4227 2.98469 12.7927 2.79669 11.8334 2.71935V1.66669C11.8334 1.53408 11.7807 1.4069 11.6869 1.31313C11.5931 1.21937 11.466 1.16669 11.3334 1.16669C11.2007 1.16669 11.0736 1.21937 10.9798 1.31313C10.886 1.4069 10.8334 1.53408 10.8334 1.66669V2.67535C10.39 2.66669 9.89268 2.66669 9.33335 2.66669H6.66668C6.10735 2.66669 5.61002 2.66669 5.16668 2.67535V1.66669Z" fill="#F5F5F5"/>
<path fill-rule="evenodd" clip-rule="evenodd" d="M1.33334 8C1.33334 7.44067 1.33334 6.94333 1.34201 6.5H14.658C14.6667 6.94333 14.6667 7.44067 14.6667 8V9.33333C14.6667 11.8473 14.6667 13.1047 13.8853 13.8853C13.1047 14.6667 11.8473 14.6667 9.33334 14.6667H6.66668C4.15268 14.6667 2.89534 14.6667 2.11468 13.8853C1.33334 13.1047 1.33334 11.8473 1.33334 9.33333V8ZM11.3333 9.33333C11.5102 9.33333 11.6797 9.2631 11.8047 9.13807C11.9298 9.01305 12 8.84348 12 8.66667C12 8.48986 11.9298 8.32029 11.8047 8.19526C11.6797 8.07024 11.5102 8 11.3333 8C11.1565 8 10.987 8.07024 10.8619 8.19526C10.7369 8.32029 10.6667 8.48986 10.6667 8.66667C10.6667 8.84348 10.7369 9.01305 10.8619 9.13807C10.987 9.2631 11.1565 9.33333 11.3333 9.33333ZM11.3333 12C11.5102 12 11.6797 11.9298 11.8047 11.8047C11.9298 11.6797 12 11.5101 12 11.3333C12 11.1565 11.9298 10.987 11.8047 10.8619C11.6797 10.7369 11.5102 10.6667 11.3333 10.6667C11.1565 10.6667 10.987 10.7369 10.8619 10.8619C10.7369 10.987 10.6667 11.1565 10.6667 11.3333C10.6667 11.5101 10.7369 11.6797 10.8619 11.8047C10.987 11.9298 11.1565 12 11.3333 12ZM8.66668 8.66667C8.66668 8.84348 8.59644 9.01305 8.47141 9.13807C8.34639 9.2631 8.17682 9.33333 8.00001 9.33333C7.8232 9.33333 7.65363 9.2631 7.52861 9.13807C7.40358 9.01305 7.33334 8.84348 7.33334 8.66667C7.33334 8.48986 7.40358 8.32029 7.52861 8.19526C7.65363 8.07024 7.8232 8 8.00001 8C8.17682 8 8.34639 8.07024 8.47141 8.19526C8.59644 8.32029 8.66668 8.48986 8.66668 8.66667ZM8.66668 11.3333C8.66668 11.5101 8.59644 11.6797 8.47141 11.8047C8.34639 11.9298 8.17682 12 8.00001 12C7.8232 12 7.65363 11.9298 7.52861 11.8047C7.40358 11.6797 7.33334 11.5101 7.33334 11.3333C7.33334 11.1565 7.40358 10.987 7.52861 10.8619C7.65363 10.7369 7.8232 10.6667 8.00001 10.6667C8.17682 10.6667 8.34639 10.7369 8.47141 10.8619C8.59644 10.987 8.66668 11.1565 8.66668 11.3333ZM4.66668 9.33333C4.84349 9.33333 5.01306 9.2631 5.13808 9.13807C5.26311 9.01305 5.33334 8.84348 5.33334 8.66667C5.33334 8.48986 5.26311 8.32029 5.13808 8.19526C5.01306 8.07024 4.84349 8 4.66668 8C4.48987 8 4.3203 8.07024 4.19527 8.19526C4.07025 8.32029 4.00001 8.48986 4.00001 8.66667C4.00001 8.84348 4.07025 9.01305 4.19527 9.13807C4.3203 9.2631 4.48987 9.33333 4.66668 9.33333ZM4.66668 12C4.84349 12 5.01306 11.9298 5.13808 11.8047C5.26311 11.6797 5.33334 11.5101 5.33334 11.3333C5.33334 11.1565 5.26311 10.987 5.13808 10.8619C5.01306 10.7369 4.84349 10.6667 4.66668 10.6667C4.48987 10.6667 4.3203 10.7369 4.19527 10.8619C4.07025 10.987 4.00001 11.1565 4.00001 11.3333C4.00001 11.5101 4.07025 11.6797 4.19527 11.8047C4.3203 11.9298 4.48987 12 4.66668 12Z" fill="#F5F5F5"/>
</svg>
