<svg width="16" height="16" viewBox="0 0 16 16" fill="none" xmlns="http://www.w3.org/2000/svg">
<g clip-path="url(#clip0_65_172)">
<path d="M11.3333 2.2267C12.3388 2.80727 13.1753 3.64038 13.7599 4.64356C14.3444 5.64675 14.6569 6.78521 14.6663 7.94626C14.6756 9.1073 14.3816 10.2507 13.8133 11.2632C13.245 12.2757 12.4221 13.1222 11.4261 13.7189C10.4301 14.3156 9.29556 14.6419 8.13471 14.6654C6.97387 14.6889 5.82701 14.4088 4.80768 13.8529C3.78835 13.2969 2.93189 12.4844 2.32309 11.4957C1.71429 10.507 1.37425 9.3765 1.33665 8.21603L1.33331 8.00003L1.33665 7.78403C1.37398 6.63269 1.70901 5.51067 2.30907 4.52736C2.90913 3.54405 3.75375 2.733 4.76057 2.17329C5.7674 1.61357 6.90208 1.32429 8.05398 1.33366C9.20589 1.34302 10.3357 1.6507 11.3333 2.2267ZM7.99998 4.00003C7.83669 4.00005 7.67909 4.06 7.55706 4.16851C7.43504 4.27701 7.35708 4.42653 7.33798 4.5887L7.33331 4.6667V8.00003L7.33931 8.08736C7.35451 8.20303 7.3998 8.31268 7.47065 8.40536L7.52865 8.47203L9.52865 10.472L9.59131 10.5267C9.70823 10.6174 9.852 10.6666 9.99998 10.6666C10.148 10.6666 10.2917 10.6174 10.4086 10.5267L10.4713 10.4714L10.5266 10.4087C10.6174 10.2918 10.6666 10.148 10.6666 10C10.6666 9.85205 10.6174 9.70828 10.5266 9.59136L10.4713 9.5287L8.66665 7.72336V4.6667L8.66198 4.5887C8.64287 4.42653 8.56492 4.27701 8.44289 4.16851C8.32087 4.06 8.16327 4.00005 7.99998 4.00003Z" fill="#F5F5F5"/>
</g>
<defs>
<clipPath id="clip0_65_172">
<rect width="16" height="16" fill="white"/>
</clipPath>
</defs>
</svg>
