<svg width="16" height="16" viewBox="0 0 16 16" fill="none" xmlns="http://www.w3.org/2000/svg">
<g clip-path="url(#clip0_65_162)">
<path d="M8.00001 1.33331C8.65928 1.33331 9.30375 1.52881 9.85191 1.89508C10.4001 2.26135 10.8273 2.78195 11.0796 3.39103C11.3319 4.00012 11.3979 4.67034 11.2693 5.31695C11.1407 5.96355 10.8232 6.55749 10.357 7.02367C9.89086 7.48984 9.29691 7.80731 8.65031 7.93593C8.00371 8.06455 7.33349 7.99854 6.7244 7.74624C6.11531 7.49395 5.59472 7.06671 5.22844 6.51855C4.86217 5.97038 4.66668 5.32592 4.66668 4.66665L4.67001 4.52198C4.70729 3.66381 5.07441 2.85316 5.69483 2.25909C6.31524 1.66501 7.14103 1.33336 8.00001 1.33331ZM9.33334 9.33331C10.2174 9.33331 11.0652 9.6845 11.6904 10.3096C12.3155 10.9347 12.6667 11.7826 12.6667 12.6666V13.3333C12.6667 13.6869 12.5262 14.0261 12.2762 14.2761C12.0261 14.5262 11.687 14.6666 11.3333 14.6666H4.66668C4.31305 14.6666 3.97392 14.5262 3.72387 14.2761C3.47382 14.0261 3.33334 13.6869 3.33334 13.3333V12.6666C3.33334 11.7826 3.68453 10.9347 4.30965 10.3096C4.93478 9.6845 5.78262 9.33331 6.66668 9.33331H9.33334Z" fill="#F5F5F5"/>
</g>
<defs>
<clipPath id="clip0_65_162">
<rect width="16" height="16" fill="white"/>
</clipPath>
</defs>
</svg>
